<?xml version="1.0" encoding="UTF-8"?>
<svg id="Layer_1" xmlns="http://www.w3.org/2000/svg" version="1.1" viewBox="0 0 2816 1536">
  <!-- Generator: Adobe Illustrator 30.2.1, SVG Export Plug-In . SVG Version: 2.1.1 Build 1)  -->
  <path d="M966.44,1128.46l-21.11-30.51-22.3-.83-.67,30.95-25.44-.18-.05-108.46c32.27,1.76,86.54-9.87,94.37,30.47,3.47,17.88-3.52,34.42-20.77,42.3l23.36,35.55-27.39.71ZM949.96,1075.45c10.5-.2,16.63-9.44,16-18.39-.56-7.99-6.86-15.83-16.7-16.01l-26.51-.49.15,35.4,27.05-.52Z"/>
  <path d="M1083.56,1105.68l-50.37-.1-9.9,22.41-26.1-.32,47.6-107.52c8.64-.84,17.74-.86,27.01-.1l48.18,107.42-26.66.93-9.76-22.71ZM1074.94,1085.53l-16.78-38.77-16.76,38.88,33.55-.12Z"/>
  <path d="M1315.03,1083.09l-49.64.05-.28,23.79,58.54.18c1.43,5.75,1.48,13.6.38,20.99l-84.38-.24-.1-108.37h82.53s.29,20.91.29,20.91l-57.2.13.21,22.51,49.29.14.36,19.91Z"/>
  <path d="M1203.4,1019.94h26.29s-46.32,107.54-46.32,107.54c-9.3.56-17.43.57-26.58.06l-46.64-107.7,27.99-.22,32.58,76.39,32.68-76.06Z"/>
  <path d="M1513.23,1071.94c14.61,5.34,20.79,17.13,19.39,31.18-1.3,12.99-12.79,23.99-28.08,24.16l-64.55.71-.03-108.52,54.07.02c12.49,0,23.91,6.13,30.59,15.62,5.84,13.85,3.06,27.65-11.39,36.83ZM1497.92,1066.77c11.41-.24,17.44-10.71,16.57-19.75-2.34-24.24-43.46-15.68-61.82-16.84l.12,37.54,45.14-.95ZM1501.94,1116.91c12-.15,18.5-10.24,18.07-19.84-.39-8.8-7.4-18.27-18.53-18.39l-48.88-.5.3,39.33,49.04-.6Z"/>
  <polygon points="848.53 1127.77 822.85 1127.97 822.58 1040.97 788.52 1040.32 788.53 1019.48 882.45 1019.43 882.97 1040.44 848.58 1040.8 848.53 1127.77"/>
  <path d="M1879.78,1073.84c0,31.36-25.42,56.78-56.78,56.78s-56.78-25.42-56.78-56.78,25.42-56.78,56.78-56.78,56.78,25.42,56.78,56.78ZM1867.45,1073.79c0-24.54-19.89-44.43-44.43-44.43s-44.43,19.89-44.43,44.43,19.89,44.43,44.43,44.43,44.43-19.89,44.43-44.43Z"/>
  <path d="M1750.5,1073.89c0,31.34-25.41,56.75-56.75,56.75s-56.75-25.41-56.75-56.75,25.41-56.75,56.75-56.75,56.75,25.41,56.75,56.75ZM1738.2,1073.79c0-24.52-19.87-44.39-44.39-44.39s-44.39,19.87-44.39,44.39,19.87,44.39,44.39,44.39,44.39-19.87,44.39-44.39Z"/>
  <polygon points="1422.7 1106.9 1422.85 1127.88 1343.36 1128.04 1343.26 1019.67 1368.81 1019.61 1368.98 1106.54 1422.7 1106.9"/>
  <path d="M1625.8,1117.31c2.56.02,3.13,8.07,1.63,10.63l-71.92-.09-.16-106.11c2.21-2.67,8.79-2.81,12.88-1.29l.1,96.43,57.46.42Z"/>
  <path d="M1961.72,1118.87l-46.52-74.96-.08,82.13c-.74,2.71-11.25,2.59-12.3-.11l-.15-104.72c1.28-2.48,10.53-2.69,12.22.1l46.63,76.86,33.72-58.52c14.39-24.97,45.55-30.14,67.78-12.39-8.71,17.96-25.61,25.73-44.34,21.01l-.04,78.5c-3.58.66-8.01.87-12.76.84l.15-79.47c5.15-9.18,17.47-14.1,28.03-17.23-11.97-3.55-21.96,5.44-29.95,15.22l-42.4,72.74Z"/>
  <path d="M2014.72,1002.69c-7.01,4.99-11.23,13.18-17.05,22.62-.19-11.35-.97-19.91-4.5-28.94l-.34,20.68c-15.51-18.21-22.52-27.08-7.48-49.46,11.91,3.97,17.92,16.01,20.49,26.87,7.9-9.3,19.21-16.49,31.2-15.25,1.98,8.48,1.59,23.08-6.72,29.07-6.23,4.49-14.74,6.48-22.95,9.09l7.35-14.68Z"/>
  <path d="M1975.77,1016.82c4.75,7.44,10.33,15.28,7.94,25.34-7.48-22.99-33.39-5.97-38.03-46.63,23.34,2.13,42.76,7.84,42.61,32.45l-12.52-11.16Z"/>
  <path d="M1229.81,401.02l11,24c-114.79,87.12-144.95,247.69-67.1,371.1-1.07-25.17.85-49.96,9.92-74.38,8.6-23.13,18.51-44.82,33.05-64.78l64.15-88.06-29.48-10.4,81.22-43.46-13.85,92.09-20.03-25.55-45.92,64.95c-28.02,39.62-52.75,92.8-45.16,142.47,5.48,35.86,28.61,67.65,63.71,79.19,38.43,12.64,80.31,5.78,114.4-14.58,10.35-6.18,19.09-15.15,23.45-25.93,5.54-13.69-1.19-27.9-12.51-36.57-31.14-23.82-67.38-31.17-96.45-56.82-23.17-20.44-25.81-52.24-4.51-75.05,10.89-11.66,25.92-20.68,41.42-26.28l42.71-15.45c23.58-8.53,47.46-23.43,44.15-50.28-1.18-9.6-8.52-20.49-18.82-26.34-53.66-30.45-26.43-39.43-77.84-47.64-20.1-3.21-38.87-10.07-48.4-29.36,11.12,2.77,20.88,5.8,30.86,6.47l33.66,2.25c-13.16-7.72-26.57-10.95-40.57-15.29-29.33-9.07-52.05-29.96-56.98-61.76,29.27,32.71,58.41,31.9,96.54,47.98-22.38-19.94-40.34-21.92-67.13-40.72-23.8-16.7-37.94-44.61-33.89-74.22,30.86,43.32,68.01,54.95,114.76,70.63,68.62,22.57,126.88,63.98,112.31,147.65,34.34-38.68,82.45-49.42,129.79-33.48,21.34,7.18,42.52,4.95,62.62-7.75-11.29,60.48-56.69,112.62-119.33,122.14,62.61,22.37,100.04,79.1,96.79,144.43-.76,15.3-4.58,28.49-7.54,45.44,61.77-80.49,74.68-187.24,35.54-281.12,5.44-12.69,8.06-23.06,11.15-36.76,58.52,106.92,48.19,240.01-27.55,336.29-55.73,70.84-145.05,119.3-238.67,117.77,47.32-18.32,100.24-54.4,111.75-106.53,5.97-27.05-1.82-53.67-22.63-71.87-15.48-13.54-33.28-24.06-53.08-30.56l-70.6-23.17c-22.47-7.37-62.19-24.47-47.96-54.63,3.24-6.86,8.87-12.81,13.98-18.4-12.41,4.61-24.37,12.24-33.14,22.75-9.65,11.57-9.89,27.63-.05,39.16,28.11,32.92,79.23,37.26,119.26,66.33,24.07,17.48,30.67,49.55,14.95,74.85-6.78,10.92-15.69,20.07-26.42,27.85-39.21,28.43-87.9,41.75-136.05,35.6-18.42-2.35-34.33-8.27-49.24-19.1-82.71-60.12-131.79-157.12-127.99-259.98,3.48-93.9,48.11-178.7,125.71-235.12ZM1397.84,470.28c34.38,23.32,49.23,40.57,50.7,82.13,20.48-76.76-34.95-115.26-98.04-134.1,35.43,32.84,5.61,71.2,56.8,102.36l20.89,12.72c-.55-28.89-20.48-40.37-30.35-63.11ZM1416.33,640.52c24.04-15.76,42.45-31.81,58.39-53.38,17.45-23.6,41.66-37.78,71.31-37.77,12.11.27,22.92,1.14,34.64,3.91l-28.89,4.74c-16.84,2.76-32.29,9.3-45.91,19.84l26.52,5.3c44.77,8.96,75.48-12.69,98.32-47.84-16.8.12-31.73-2.17-47.05-6.53-50.7-14.45-89.24,11.04-118.54,50.08-44.86,59.77-84.72,52.38-112.59,81.52-4,4.19-6.94,12.76-5.79,17.88,3.74,16.76,39.84,26.86,55.46,31.05l63.16,16.97c53.91,18.34,103.17,48.54,100.36,114.28,24.82-35.35,31.29-78.14,18.44-118.93-23-73.03-95.93-93.39-167.83-81.13Z"/>
  <path d="M1663.72,445.6c-39.16-18.32-69.45-18.6-104.62,11.15-3.38-2.43-7.02-9.3-6.81-13.75,37.3-26.72,37.91-57.31,23.04-99.07-39.72,11.78-67.76,32.45-67.6,78.21-3.91,1.48-10.21,2.71-14.31,3.01.16-44.77-17.47-66.32-56.01-85.22-14.79,28.15-19.59,53.51-3,84.51-25.06-13.26-31.56-20.59-27.38-51.19,2.92-21.39,11.7-39.36,22.46-58,31.41,15.49,55.62,27.7,71.96,58.54,19.43-31.44,49.95-42.55,84.44-52.53,13.63,32.6,22.93,62.98,10.65,96.09,34.71-5.99,58.24,3.71,90.37,18.94-7.54,26.77-38.34,75.92-70.88,68.64l-16.77-4.38c23.21-6.01,42.59-17.51,54.72-38.27l9.74-16.66Z"/>
  <path d="M1392,369.36l-55.71,8.52c-10.55-3.51-21.95-8.76-33.41-14.63,30.85-12.56,61.82-18.76,95.77-19.89l-6.65,26.01Z"/>
  <path d="M1490.59,506.16l4.87-25.68-3.85-3.02c-.82-.64.45-1.94,2.23-4.69l-18.63-19.06,25.85,3.32,3.03-4.13c.64-.87,2.97,1.23,4.62,2.29l19.53-19.26-4.58,26.91,3.38,1.12c.81.27,2.71,1.52,2.03,2.04l-4.19,3.18,19.13,20.69-25.73-4.18-3.27,3.19c-.69.67-3.12-.73-4.32-.96l-20.09,18.24ZM1517.2,470.55c0-4.01-3.25-7.26-7.26-7.26s-7.26,3.25-7.26,7.26,3.25,7.26,7.26,7.26,7.26-3.25,7.26-7.26Z"/>
  <path d="M1478.31,431.98c-2.64,3.35-6.36,6.71-10.23,9.76-5.93-18.33-11.48-33.45-13.59-52.23l23.82,42.47Z"/>
  <path d="M1561.49,484.59l-.67-13.58c16.89-2.94,30.22-5.99,49.15-6.66l-48.49,20.25Z"/>
  <path d="M1539.15,429.49c-2.8-.5-6.6-2.89-10.39-5.99l23.42-35.77-13.04,41.76Z"/>
</svg>